<svg width="43" height="38" viewBox="0 0 43 38" fill="none" xmlns="http://www.w3.org/2000/svg">
<g clip-path="url(#clip0_912_3854)">
<path d="M4.21678 4.21678H10.542L14.7587 0H27.4091L31.6259 4.21678H37.951C39.0694 4.21678 40.1419 4.66105 40.9327 5.45185C41.7235 6.24265 42.1678 7.3152 42.1678 8.43356V33.7342C42.1678 34.8526 41.7235 35.9252 40.9327 36.716C40.1419 37.5067 39.0694 37.951 37.951 37.951H4.21678C3.09842 37.951 2.02587 37.5067 1.23507 36.716C0.444266 35.9252 0 34.8526 0 33.7342V8.43356C0 7.3152 0.444266 6.24265 1.23507 5.45185C2.02587 4.66105 3.09842 4.21678 4.21678 4.21678ZM21.0839 10.5419C18.288 10.5419 15.6066 11.6526 13.6296 13.6296C11.6526 15.6066 10.542 18.288 10.542 21.0839C10.542 23.8798 11.6526 26.5612 13.6296 28.5382C15.6066 30.5152 18.288 31.6258 21.0839 31.6258C23.8798 31.6258 26.5612 30.5152 28.5382 28.5382C30.5152 26.5612 31.6259 23.8798 31.6259 21.0839C31.6259 18.288 30.5152 15.6066 28.5382 13.6296C26.5612 11.6526 23.8798 10.5419 21.0839 10.5419ZM21.0839 14.7587C22.7614 14.7587 24.3703 15.4251 25.5565 16.6113C26.7427 17.7975 27.4091 19.4064 27.4091 21.0839C27.4091 22.7614 26.7427 24.3703 25.5565 25.5565C24.3703 26.7427 22.7614 27.4091 21.0839 27.4091C19.4064 27.4091 17.7975 26.7427 16.6113 25.5565C15.4251 24.3703 14.7587 22.7614 14.7587 21.0839C14.7587 19.4064 15.4251 17.7975 16.6113 16.6113C17.7975 15.4251 19.4064 14.7587 21.0839 14.7587Z" fill="#E8E5FB"/>
</g>
<defs>
<clipPath id="clip0_912_3854">
<rect width="42.1678" height="37.951" fill="white"/>
</clipPath>
</defs>
</svg>
