<?xml version="1.0" encoding="UTF-8"?>
<svg id="Calque_2" data-name="Calque 2" xmlns="http://www.w3.org/2000/svg" viewBox="0 0 517.97 90.47">
  <defs>
    <style>
      .cls-1 {
        fill: #e8e5fb;
        stroke-width: 0;
      }
    </style>
  </defs>
  <g id="Calque_1-2" data-name="Calque 1">
    <g>
      <path class="cls-1" d="M148.34,30.91c-1.11.5-2.25.9-3.42,1.19-1.83.42-3.62.28-4.99-.11-2.87-.79-3.77-2.9-3.28-4.63.36-1.3,1.41-2.64,3.29-2.81,1.64-.24,3.13-.62,4.46-1.2-6.54-9.64-17.59-16-30.05-16H36.32C16.34,7.35,0,23.7,0,43.67v10.48c0,19.97,16.34,36.32,36.32,36.32h78.03c19.97,0,36.32-16.35,36.32-36.32v-10.48c0-4.48-.83-8.78-2.33-12.76ZM46.36,79.46c-6.55,0-12.26-1.24-17.11-3.73-4.86-2.48-8.61-6.02-11.25-10.59-2.65-4.58-3.97-9.95-3.97-16.11s1.34-11.43,4.03-16.05c2.68-4.62,6.43-8.21,11.25-10.77,4.81-2.57,10.38-3.85,16.69-3.85,4.35,0,8.49.77,12.44,2.31,3.95,1.54,7.46,3.81,10.54,6.81l-10.3,11.25c-3.32-3.08-7.23-4.62-11.73-4.62-4.26,0-7.74,1.36-10.42,4.08-2.68,2.73-4.03,6.3-4.03,10.72s1.32,7.99,3.97,10.72c2.64,2.72,6.14,4.08,10.48,4.08,4.82,0,8.92-1.69,12.32-5.09l10.54,11.13c-6.56,6.48-14.37,9.71-23.45,9.71ZM134.23,64.9c-2.6,4.58-6.35,8.15-11.25,10.72-4.89,2.56-10.58,3.84-17.05,3.84s-12.14-1.28-17-3.84c-4.85-2.57-8.58-6.14-11.19-10.72-2.6-4.58-3.91-9.91-3.91-15.99s1.31-11.41,3.91-15.99c2.61-4.57,6.34-8.15,11.19-10.71,4.86-2.57,10.52-3.85,17-3.85s12.16,1.28,17.05,3.85c4.9,2.56,8.65,6.14,11.25,10.71,2.61,4.58,3.91,9.91,3.91,15.99s-1.3,11.41-3.91,15.99ZM105.93,34.11c-4.03,0-7.31,1.38-9.83,4.14-2.53,2.77-3.79,6.32-3.79,10.66s1.26,7.9,3.79,10.66c2.52,2.76,5.8,4.14,9.83,4.14s7.42-1.38,9.95-4.14c2.52-2.76,3.79-6.32,3.79-10.66s-1.27-7.89-3.79-10.66c-2.53-2.76-5.85-4.14-9.95-4.14Z"/>
      <g>
        <path class="cls-1" d="M203.61,47.13c-4.38-3.15-10.76-5.05-19.13-5.68-2.92-.31-4.99-.79-6.21-1.42-1.23-.63-1.84-1.54-1.84-2.72,0-2.85,3-4.27,9-4.27s11.33,1.27,15.75,3.79l7.23-12.43c-3.01-1.98-6.58-3.52-10.72-4.62-4.15-1.11-8.51-1.66-13.09-1.66-8.05,0-14.45,1.72-19.18,5.15-4.74,3.44-7.11,8.07-7.11,13.92,0,5.37,2.19,9.71,6.57,13.02,4.39,3.32,10.29,5.18,17.71,5.57,3.31.24,5.68.71,7.1,1.42,1.43.71,2.14,1.78,2.14,3.2,0,2.76-2.57,4.14-7.7,4.14-3.71,0-7.44-.47-11.19-1.42s-7.05-2.29-9.89-4.02l-7.11,12.79c7.66,5.21,16.66,7.81,27,7.81,8.53,0,15.2-1.72,20.02-5.15,4.81-3.43,7.22-8.15,7.22-14.15,0-5.69-2.19-10.11-6.57-13.27Z"/>
        <path class="cls-1" d="M308.95,24.87c-4.26-4.34-10.11-6.51-17.53-6.51-8.68,0-15.39,3.04-20.13,9.12-1.74-2.85-4.11-5.08-7.11-6.69-3-1.62-6.39-2.43-10.18-2.43-3.32,0-6.42.67-9.3,2.01-2.88,1.34-5.35,3.28-7.4,5.8l-1.06-6.51h-16.11v58.5h18.59v-31.97c0-3.63.97-6.56,2.9-8.77,1.94-2.21,4.52-3.31,7.76-3.31,2.92,0,5.17.97,6.75,2.9,1.58,1.93,2.37,4.64,2.37,8.11v33.04h18.47v-31.97c0-3.63.95-6.56,2.85-8.77,1.89-2.21,4.46-3.31,7.69-3.31,2.92,0,5.19.97,6.81,2.9,1.62,1.93,2.43,4.64,2.43,8.11v33.04h18.59v-35.41c0-7.58-2.13-13.54-6.39-17.88Z"/>
        <path class="cls-1" d="M385.69,32.92c-2.61-4.57-6.36-8.15-11.25-10.71-4.9-2.57-10.58-3.85-17.06-3.85s-12.13,1.28-16.99,3.85c-4.86,2.56-8.59,6.14-11.19,10.71-2.61,4.58-3.91,9.91-3.91,15.99s1.3,11.41,3.91,15.99c2.6,4.58,6.33,8.15,11.19,10.72,4.86,2.56,10.52,3.84,16.99,3.84s12.16-1.28,17.06-3.84c4.89-2.57,8.64-6.14,11.25-10.72,2.6-4.58,3.91-9.91,3.91-15.99s-1.31-11.41-3.91-15.99ZM367.33,59.57c-2.53,2.76-5.84,4.14-9.95,4.14s-7.3-1.38-9.83-4.14c-2.52-2.76-3.78-6.32-3.78-10.66s1.26-7.89,3.78-10.66c2.53-2.76,5.81-4.14,9.83-4.14s7.42,1.38,9.95,4.14c2.53,2.77,3.79,6.32,3.79,10.66s-1.26,7.9-3.79,10.66Z"/>
        <path class="cls-1" d="M443.07,47.13c-4.39-3.15-10.76-5.05-19.13-5.68-2.92-.31-4.99-.79-6.22-1.42-1.22-.63-1.83-1.54-1.83-2.72,0-2.85,3-4.27,9-4.27s11.33,1.27,15.75,3.79l7.22-12.43c-3-1.98-6.57-3.52-10.72-4.62-4.14-1.11-8.5-1.66-13.08-1.66-8.05,0-14.45,1.72-19.19,5.15-4.73,3.44-7.1,8.07-7.1,13.92,0,5.37,2.19,9.71,6.57,13.02,4.38,3.32,10.28,5.18,17.7,5.57,3.32.24,5.69.71,7.11,1.42,1.42.71,2.13,1.78,2.13,3.2,0,2.76-2.56,4.14-7.7,4.14-3.71,0-7.44-.47-11.19-1.42s-7.04-2.29-9.89-4.02l-7.1,12.79c7.66,5.21,16.66,7.81,27,7.81,8.53,0,15.2-1.72,20.01-5.15,4.82-3.43,7.23-8.15,7.23-14.15,0-5.69-2.19-10.11-6.57-13.27Z"/>
        <path class="cls-1" d="M517.97,47.49c0-5.84-1.24-10.95-3.73-15.34-2.49-4.38-6.06-7.77-10.72-10.18-4.66-2.41-10.18-3.61-16.58-3.61s-11.72,1.28-16.46,3.85c-4.73,2.56-8.43,6.17-11.07,10.83-2.65,4.66-3.97,9.99-3.97,15.99s1.34,11.65,4.03,16.22c2.68,4.58,6.51,8.12,11.49,10.6,4.97,2.49,10.85,3.73,17.64,3.73,5.13,0,9.97-.83,14.51-2.48,4.54-1.66,8.47-4.03,11.78-7.11l-9.71-10.42c-1.97,1.58-4.34,2.8-7.1,3.67-2.77.87-5.61,1.3-8.53,1.3-4.19,0-7.62-.92-10.3-2.78-2.69-1.85-4.31-4.28-4.86-7.28h42.99c.39-2.77.59-5.1.59-6.99ZM474.51,43.82c.31-3.4,1.64-6.04,3.97-7.94,2.32-1.89,5.34-2.84,9.06-2.84s6.81.95,9.06,2.84c2.25,1.9,3.49,4.54,3.73,7.94h-25.82Z"/>
      </g>
      <path class="cls-1" d="M154.98.44c-5.41-1.5-10.53.91-12.1,6.53-1.98,7.13,3.98,10.77,7.04,11.27-1.43,2.53-3.26,4.12-5.52,5.11,1.6,2.34,2.92,4.88,3.94,7.56,6.73-3,12.24-9.55,14-15.85,2.25-8.11-1.85-13.09-7.36-14.62Z"/>
    </g>
  </g>
</svg>
