<svg width="20" height="20" viewBox="0 0 20 20" fill="none" xmlns="http://www.w3.org/2000/svg">
<g id="clarity:help-solid" clip-path="url(#clip0_1678_1246)">
<path id="Vector" d="M9.99995 0.302734C8.08207 0.302734 6.20726 0.871452 4.6126 1.93697C3.01795 3.00249 1.77506 4.51694 1.04112 6.28883C0.30718 8.06072 0.115148 10.0105 0.489307 11.8915C0.863467 13.7725 1.78701 15.5004 3.14316 16.8565C4.49931 18.2126 6.22714 19.1362 8.10817 19.5104C9.9892 19.8845 11.9389 19.6925 13.7108 18.9585C15.4827 18.2246 16.9972 16.9817 18.0627 15.3871C19.1282 13.7924 19.6969 11.9176 19.6969 9.9997C19.6969 7.42791 18.6753 4.96145 16.8567 3.14291C15.0382 1.32438 12.5717 0.302734 9.99995 0.302734ZM9.86662 15.9694C9.66884 15.9694 9.4755 15.9108 9.31105 15.8009C9.1466 15.691 9.01843 15.5348 8.94274 15.3521C8.86705 15.1694 8.84725 14.9683 8.88583 14.7743C8.92442 14.5803 9.01966 14.4021 9.15951 14.2623C9.29937 14.1224 9.47755 14.0272 9.67153 13.9886C9.86551 13.95 10.0666 13.9698 10.2493 14.0455C10.432 14.1212 10.5882 14.2494 10.6981 14.4138C10.808 14.5783 10.8666 14.7716 10.8666 14.9694C10.8666 15.2346 10.7613 15.489 10.5737 15.6765C10.3862 15.864 10.1318 15.9694 9.86662 15.9694ZM10.6969 11.0846V12.127C10.6957 12.339 10.6133 12.5425 10.4668 12.6957C10.3203 12.849 10.1208 12.9404 9.90904 12.9512H9.84238C9.73522 12.9553 9.62831 12.9381 9.52784 12.9006C9.42737 12.8631 9.33532 12.8061 9.257 12.7328C9.17868 12.6596 9.11564 12.5715 9.07152 12.4738C9.0274 12.376 9.00308 12.2705 8.99995 12.1633V10.4906C8.98996 10.3934 8.99981 10.2953 9.02891 10.202C9.058 10.1088 9.10573 10.0224 9.16921 9.94818C9.23268 9.87394 9.31057 9.81337 9.39816 9.77013C9.48575 9.7269 9.5812 9.70191 9.67874 9.69667C10.6303 9.62395 12.2121 9.27243 12.2121 7.72698C12.2121 6.61789 11.3575 5.86637 10.1333 5.86637C9.66919 5.87403 9.21225 5.98199 8.7938 6.18285C8.37535 6.3837 8.00531 6.6727 7.70904 7.03001C7.597 7.14907 7.45207 7.23211 7.2927 7.26859C7.13333 7.30506 6.96671 7.29331 6.81403 7.23484C6.66135 7.17637 6.52951 7.07381 6.43527 6.94021C6.34103 6.80661 6.28866 6.648 6.2848 6.48455C6.28838 6.25608 6.38204 6.03826 6.54541 5.87849C6.99549 5.35743 7.55435 4.9414 8.18263 4.65972C8.81091 4.37804 9.49332 4.23757 10.1818 4.24819C12.4242 4.24819 13.9878 5.64213 13.9878 7.64213C13.9878 9.49061 12.7939 10.727 10.6969 11.0846Z" fill="#E8E5FB"/>
</g>
<defs>
<clipPath id="clip0_1678_1246">
<rect width="20" height="20" fill="white"/>
</clipPath>
</defs>
</svg>
