<svg width="17" height="20" viewBox="0 0 17 20" xmlns="http://www.w3.org/2000/svg">
<path d="M6.3765 5.28493C7.27013 4.09534 8.61922 3.36314 10.0615 3.36314C11.3251 3.36314 12.4926 3.90701 13.3651 4.83331C13.495 4.97098 13.6509 5.0817 13.8236 5.15915C13.9964 5.2366 14.1827 5.27927 14.372 5.28471C14.5612 5.29015 14.7497 5.25827 14.9266 5.19087C15.1035 5.12348 15.2654 5.02189 15.4031 4.89192C15.5408 4.76195 15.6515 4.60614 15.729 4.43337C15.8064 4.26061 15.8491 4.07429 15.8545 3.88504C15.86 3.69579 15.8281 3.50732 15.7607 3.33039C15.6933 3.15346 15.5917 2.99154 15.4617 2.85387C14.0915 1.40292 12.1861 0.480469 10.0615 0.480469C6.89634 0.480469 4.27023 2.48873 3.08352 5.28493H1.92181C1.53954 5.28493 1.17293 5.43678 0.902627 5.70709C0.632324 5.97739 0.480469 6.344 0.480469 6.72626C0.480469 7.10853 0.632324 7.47514 0.902627 7.74544C1.17293 8.01575 1.53954 8.1676 1.92181 8.1676H2.4157C2.39813 8.48766 2.39813 8.80844 2.4157 9.12849H1.92181C1.53954 9.12849 1.17293 9.28035 0.902627 9.55065C0.632324 9.82096 0.480469 10.1876 0.480469 10.5698C0.480469 10.9521 0.632324 11.3187 0.902627 11.589C1.17293 11.8593 1.53954 12.0112 1.92181 12.0112H3.08352C4.27023 14.8074 6.89634 16.8156 10.0615 16.8156C12.1861 16.8156 14.0915 15.8932 15.4617 14.4422C15.5917 14.3046 15.6933 14.1426 15.7607 13.9657C15.8281 13.7888 15.86 13.6003 15.8545 13.4111C15.8491 13.2218 15.8064 13.0355 15.729 12.8627C15.6515 12.69 15.5408 12.5341 15.4031 12.4042C15.2654 12.2742 15.1035 12.1726 14.9266 12.1052C14.7497 12.0378 14.5612 12.0059 14.372 12.0114C14.1827 12.0168 13.9964 12.0595 13.8236 12.1369C13.6509 12.2144 13.495 12.3251 13.3651 12.4628C12.4916 13.3891 11.3251 13.933 10.0615 13.933C8.61922 13.933 7.27013 13.2008 6.3765 12.0112H9.60894C9.99121 12.0112 10.3578 11.8593 10.6281 11.589C10.8984 11.3187 11.0503 10.9521 11.0503 10.5698C11.0503 10.1876 10.8984 9.82096 10.6281 9.55065C10.3578 9.28035 9.99121 9.12849 9.60894 9.12849H5.30415C5.27891 8.80869 5.27891 8.4874 5.30415 8.1676H9.60894C9.99121 8.1676 10.3578 8.01575 10.6281 7.74544C10.8984 7.47514 11.0503 7.10853 11.0503 6.72626C11.0503 6.344 10.8984 5.97739 10.6281 5.70709C10.3578 5.43678 9.99121 5.28493 9.60894 5.28493H6.3765Z" fill="#fff"/>
</svg>
