<svg width="36" height="31" viewBox="0 0 36 31" fill="none" xmlns="http://www.w3.org/2000/svg">
<g id="ic:round-mic" clip-path="url(#clip0_947_2342)">
<path id="Vector" d="M17.8843 19.4474C20.5053 19.4474 22.6211 17.3316 22.6211 14.7105V5.23684C22.6211 2.61579 20.5053 0.5 17.8843 0.5C15.2632 0.5 13.1474 2.61579 13.1474 5.23684V14.7105C13.1474 17.3316 15.2632 19.4474 17.8843 19.4474ZM27.2158 14.7105C26.4421 14.7105 25.7948 15.2789 25.6685 16.0526C25.0211 19.7632 21.7843 22.6053 17.8843 22.6053C13.9843 22.6053 10.7474 19.7632 10.1 16.0526C10.0444 15.6812 9.85787 15.3419 9.57417 15.0959C9.29047 14.8498 8.92821 14.7131 8.55268 14.7105C7.58952 14.7105 6.83162 15.5632 6.97373 16.5105C7.74741 21.2474 11.5369 24.9579 16.3053 25.6368V28.9211C16.3053 29.7895 17.0158 30.5 17.8843 30.5C18.7527 30.5 19.4632 29.7895 19.4632 28.9211V25.6368C21.7867 25.3049 23.9439 24.2412 25.6219 22.6002C27.2999 20.9591 28.4113 18.826 28.7948 16.5105C28.9527 15.5632 28.179 14.7105 27.2158 14.7105Z" fill="#E8E5FB"/>
</g>
<defs>
<clipPath id="clip0_947_2342">
<rect width="34.5" height="30" fill="white" transform="translate(0.956543 0.5)"/>
</clipPath>
</defs>
</svg>
