<svg width="20" height="20" viewBox="0 0 20 20" fill="none" xmlns="http://www.w3.org/2000/svg">
<g id="ic:round-logout" clip-path="url(#clip0_1678_1251)">
<path id="Vector" d="M2.22222 2.22222H8.88889C9.5 2.22222 10 1.72222 10 1.11111C10 0.5 9.5 0 8.88889 0H2.22222C1 0 0 1 0 2.22222V17.7778C0 19 1 20 2.22222 20H8.88889C9.5 20 10 19.5 10 18.8889C10 18.2778 9.5 17.7778 8.88889 17.7778H2.22222V2.22222Z" fill="#E8E5FB"/>
<path id="Vector_2" d="M19.6112 9.61115L16.5112 6.51115C16.4339 6.43177 16.3347 6.37724 16.2263 6.35456C16.1178 6.33188 16.0051 6.34208 15.9025 6.38384C15.7998 6.4256 15.712 6.49703 15.6502 6.58899C15.5885 6.68095 15.5555 6.78926 15.5556 6.90004V8.88893H7.77786C7.16675 8.88893 6.66675 9.38893 6.66675 10C6.66675 10.6112 7.16675 11.1112 7.77786 11.1112H15.5556V13.1C15.5556 13.6 16.1556 13.8445 16.5001 13.4889L19.6001 10.3889C19.8223 10.1778 19.8223 9.82227 19.6112 9.61115Z" fill="#E8E5FB"/>
</g>
<defs>
<clipPath id="clip0_1678_1251">
<rect width="20" height="20" fill="white"/>
</clipPath>
</defs>
</svg>
