<svg width="20" height="20" viewBox="0 0 20 20" fill="none" xmlns="http://www.w3.org/2000/svg">
<g clip-path="url(#clip0_912_3809)">
<path d="M9.99996 1.66663C14.6025 1.66663 18.3333 5.39746 18.3333 9.99996C18.3333 14.6025 14.6025 18.3333 9.99996 18.3333C5.39746 18.3333 1.66663 14.6025 1.66663 9.99996C1.66663 5.39746 5.39746 1.66663 9.99996 1.66663ZM9.99996 4.99996C9.77894 4.99996 9.56698 5.08776 9.4107 5.24404C9.25442 5.40032 9.16663 5.61228 9.16663 5.83329V9.99996C9.16667 10.221 9.2545 10.4329 9.41079 10.5891L11.9108 13.0891C12.068 13.2409 12.2785 13.3249 12.497 13.323C12.7155 13.3211 12.9245 13.2335 13.079 13.079C13.2335 12.9245 13.3211 12.7155 13.323 12.497C13.3249 12.2785 13.2409 12.068 13.0891 11.9108L10.8333 9.65496V5.83329C10.8333 5.61228 10.7455 5.40032 10.5892 5.24404C10.4329 5.08776 10.221 4.99996 9.99996 4.99996Z" fill="#fff"/>
</g>
<defs>
<clipPath id="clip0_912_3809">
<rect width="20" height="20" fill="white"/>
</clipPath>
</defs>
</svg>
