<svg width="34" height="31" viewBox="0 0 34 31" fill="none" xmlns="http://www.w3.org/2000/svg">
<path id="Vector" d="M30.0435 4.41304H25.5239L23.3016 1.08044C23.1826 0.901986 23.0213 0.755657 22.8322 0.654411C22.6431 0.553166 22.4319 0.500129 22.2174 0.5H11.7826C11.5681 0.500129 11.3569 0.553166 11.1678 0.654411C10.9786 0.755657 10.8174 0.901986 10.6983 1.08044L8.47444 4.41304H3.9565C2.9187 4.41304 1.9234 4.82531 1.18956 5.55915C0.455723 6.29299 0.043457 7.28828 0.043457 8.32609V26.587C0.043457 27.6248 0.455723 28.6201 1.18956 29.3539C1.9234 30.0877 2.9187 30.5 3.9565 30.5H30.0435C31.0813 30.5 32.0766 30.0877 32.8104 29.3539C33.5442 28.6201 33.9565 27.6248 33.9565 26.587V8.32609C33.9565 7.28828 33.5442 6.29299 32.8104 5.55915C32.0766 4.82531 31.0813 4.41304 30.0435 4.41304ZM22.8695 16.8043C22.8695 17.9652 22.5253 19.1001 21.8803 20.0653C21.2354 21.0306 20.3187 21.7829 19.2462 22.2271C18.1736 22.6714 16.9935 22.7876 15.8549 22.5611C14.7163 22.3347 13.6704 21.7756 12.8496 20.9548C12.0287 20.1339 11.4697 19.088 11.2432 17.9494C11.0167 16.8109 11.133 15.6307 11.5772 14.5582C12.0215 13.4856 12.7738 12.5689 13.739 11.924C14.7043 11.279 15.8391 10.9348 17 10.9348C18.5567 10.9348 20.0496 11.5532 21.1504 12.6539C22.2511 13.7547 22.8695 15.2476 22.8695 16.8043Z" fill="#E8E5FB"/>
</svg>
